<?xml version="1.0" encoding="UTF-8" standalone="no"?>
<svg xmlns="http://www.w3.org/2000/svg" id="Layer1" viewBox="0 0 98.67 52.7">
<defs>
	<style type="text/css">.cls-1{fill:#af0000;}</style>
</defs>
<title>red heart</title>
<path d="M96.4,25.6H84A2.43,2.43,0,0,0,81.9,27l-1.6,3.9L71.8,9.5a2.17,2.17,0,0,0-2.1-1.4,2.43,2.43,0,0,0-2.1,1.4L61.2,25.6H52.4A23.69,23.69,0,0,0,52.4,9,14.06,14.06,0,0,0,43.2.7,16.41,16.41,0,0,0,38.4,0,13.8,13.8,0,0,0,27,6,14,14,0,0,0,15.6,0a16.41,16.41,0,0,0-4.8.7A14.06,14.06,0,0,0,1.6,9C-.9,14.9-.4,22.5,3,28.9,8.5,39.5,25,51.8,25.7,52.3a2.31,2.31,0,0,0,2.6,0c.7-.5,15.9-11.9,22-22.2H62.8a2.43,2.43,0,0,0,2.1-1.4l4.9-12.3,8.5,21.3a2.17,2.17,0,0,0,2.1,1.4,2.43,2.43,0,0,0,2.1-1.4L85.6,30H96.5a2.22,2.22,0,0,0,2.2-2.2A2.31,2.31,0,0,0,96.4,25.6Zm-69.5,22c-4-3.1-15.8-12.8-20-20.8C4.2,21.6,3.7,15.3,5.7,10.7A9.9,9.9,0,0,1,12,4.9a11.19,11.19,0,0,1,3.6-.5c6.1,0,8.9,5.7,9.3,6.8A2.43,2.43,0,0,0,27,12.6a2.26,2.26,0,0,0,2.1-1.4c.5-1.1,3.2-6.8,9.3-6.8a16.34,16.34,0,0,1,3.6.5,9.66,9.66,0,0,1,6.3,5.8c2,4.6,1.5,10.9-1.2,16.1C42.8,34.8,30.9,44.5,26.9,47.6Z" transform="translate(-0.03)"/>
<path class="cls-1" d="M26.9,47.6c-4-3.1-15.8-12.8-20-20.8C4.2,21.6,3.7,15.3,5.7,10.7A9.9,9.9,0,0,1,12,4.9a11.19,11.19,0,0,1,3.6-.5c6.1,0,8.9,5.7,9.3,6.8A2.43,2.43,0,0,0,27,12.6a2.26,2.26,0,0,0,2.1-1.4c.5-1.1,3.2-6.8,9.3-6.8a16.34,16.34,0,0,1,3.6.5,9.66,9.66,0,0,1,6.3,5.8c2,4.6,1.5,10.9-1.2,16.1C42.8,34.8,30.9,44.5,26.9,47.6Z" transform="translate(-0.03)"/>
</svg>